<?xml version="1.0" standalone="no"?>
<!DOCTYPE svg PUBLIC "-//W3C//DTD SVG 20010904//EN"
 "http://www.w3.org/TR/2001/REC-SVG-20010904/DTD/svg10.dtd">
<svg version="1.0" xmlns="http://www.w3.org/2000/svg"
 width="1510.000000pt" height="518.000000pt" viewBox="0 0 1510.000000 518.000000"
 preserveAspectRatio="xMidYMid meet">

<g transform="translate(0.000000,518.000000) scale(0.100000,-0.100000)"
fill="#FFFFFF" stroke="none">
<path d="M69 5157 c-19 -12 -42 -38 -51 -57 -17 -33 -18 -174 -18 -2510 0
-2336 1 -2477 18 -2510 9 -19 32 -45 51 -57 l34 -23 466 0 c521 0 514 -1 553
71 17 32 18 131 18 2519 0 2391 -1 2487 -18 2520 -37 71 -32 70 -553 70 l-466
0 -34 -23z"/>
<path d="M2580 5169 c-305 -35 -562 -148 -726 -320 -149 -157 -241 -337 -291
-572 -16 -72 -18 -141 -18 -582 0 -550 4 -597 66 -787 127 -392 402 -626 846
-720 l108 -23 1570 -5 1570 -5 60 -23 c32 -12 75 -35 95 -50 44 -36 95 -119
110 -181 17 -67 25 -451 11 -539 -26 -169 -92 -261 -217 -304 l-69 -23 -2030
-5 c-1919 -5 -2032 -6 -2058 -23 -63 -41 -62 -30 -62 -487 0 -453 0 -451 58
-494 l28 -21 2177 -3 c1891 -2 2192 0 2293 13 385 50 650 197 824 460 94 141
143 264 182 460 16 80 18 147 18 580 0 416 -3 504 -17 585 -51 285 -151 492
-315 651 -169 164 -367 257 -655 305 -94 16 -242 18 -1658 23 l-1555 6 -56 28
c-72 35 -130 97 -160 173 -23 57 -24 68 -24 324 0 252 1 268 22 321 43 103
103 161 207 197 48 16 190 17 2091 22 1928 5 2041 6 2066 23 53 36 54 41 57
469 2 250 -1 412 -7 436 -6 21 -25 51 -41 67 l-31 30 -2197 1 c-1208 1 -2231
-2 -2272 -7z"/>
<path d="M7631 5162 c-71 -38 -71 -38 -71 -501 0 -403 1 -415 21 -448 40 -64
34 -63 501 -63 l424 0 302 -282 302 -282 0 -386 c0 -380 0 -386 23 -430 42
-82 28 -80 550 -80 502 0 489 -1 541 60 l26 32 0 422 0 423 -23 34 c-46 69
-44 69 -512 69 l-420 1 -297 277 -297 277 0 390 c-1 435 -1 436 -70 482 l-34
23 -466 0 c-433 0 -469 -1 -500 -18z"/>
<path d="M9255 5167 c-47 -18 -71 -39 -97 -82 l-23 -40 -3 -452 -3 -453 1993
-3 c1802 -3 2001 -5 2071 -20 422 -88 609 -249 697 -601 50 -201 55 -279 55
-926 0 -647 -5 -725 -55 -926 -80 -318 -256 -491 -582 -574 -216 -54 -240 -55
-1653 -55 -715 0 -1313 4 -1328 8 -57 16 -57 20 -57 657 l0 580 -570 0 -570 0
2 -1072 3 -1073 27 -46 c17 -29 41 -53 65 -65 37 -18 101 -19 1918 -22 1332
-2 1927 0 2040 8 503 36 891 149 1191 346 113 74 311 270 383 379 189 287 292
647 321 1120 13 220 13 1250 0 1470 -29 473 -133 837 -322 1120 -68 103 -219
259 -328 341 -109 82 -343 200 -491 248 -213 68 -463 114 -738 136 -200 15
-3906 12 -3946 -3z"/>
<path d="M7560 1918 c0 -1706 1 -1815 18 -1847 9 -19 33 -43 52 -53 33 -17 64
-18 512 -16 l476 3 27 25 c58 53 55 -64 55 1895 l0 1805 -570 0 -570 0 0
-1812z"/>
</g>
</svg>
